<?xml version="1.0" standalone="no"?>
<!DOCTYPE svg PUBLIC "-//W3C//DTD SVG 20010904//EN"
 "http://www.w3.org/TR/2001/REC-SVG-20010904/DTD/svg10.dtd">
<svg version="1.0" xmlns="http://www.w3.org/2000/svg"
 width="2725.000000pt" height="1638.000000pt" viewBox="0 0 2725.000000 1638.000000"
 preserveAspectRatio="xMidYMid meet">

<g transform="translate(0.000000,1638.000000) scale(0.100000,-0.100000)"
fill="#000000" stroke="none">
<path d="M12943 16358 c-26 -41 -793 -1553 -793 -1564 0 -15 264 -194 285
-194 16 0 37 27 115 145 100 154 191 223 306 233 54 4 71 1 126 -25 126 -60
241 -194 351 -410 51 -100 3206 -6634 3988 -8259 177 -366 207 -451 193 -532
-15 -88 -83 -143 -200 -162 -33 -6 -165 -10 -295 -10 l-236 0 -6 -67 c-4 -38
-7 -87 -7 -110 l0 -43 1965 0 c1564 0 1966 3 1970 13 2 6 6 56 8 109 l5 97
-386 4 c-430 4 -453 7 -592 74 -59 28 -94 56 -166 127 -79 80 -97 105 -151
211 -34 66 -1159 2395 -2501 5176 -1342 2781 -2452 5075 -2466 5097 -14 22
-42 53 -62 69 l-37 28 -703 3 c-559 2 -704 0 -711 -10z"/>
<path d="M975 11654 c-341 -350 -660 -678 -708 -730 l-89 -94 29 -34 c15 -18
42 -45 59 -59 49 -41 95 -25 207 75 146 128 253 194 364 223 137 36 228 -27
287 -198 l21 -62 3 -2415 c2 -1737 0 -2433 -8 -2480 -19 -107 -67 -188 -140
-235 -93 -58 -99 -59 -567 -63 l-433 -3 0 -110 0 -109 2050 0 2050 0 0 110 0
110 -417 0 c-453 0 -515 6 -597 54 -60 35 -110 94 -137 162 l-24 59 -3 2295
c-2 1609 0 2328 8 2405 41 415 216 889 414 1124 20 24 35 46 33 48 -3 2 -38
-9 -78 -25 -97 -38 -137 -45 -196 -32 -58 13 -107 56 -136 120 -18 39 -22 71
-27 241 -4 152 -9 200 -20 214 -37 44 -46 45 -702 45 l-623 -1 -620 -635z"/>
<path d="M5370 12273 c278 -61 424 -132 576 -276 196 -185 319 -470 354 -822
8 -78 10 -865 8 -2715 l-3 -2605 -24 -60 c-32 -80 -106 -154 -186 -186 -59
-23 -65 -24 -492 -27 l-433 -3 0 -110 0 -109 2050 0 2050 0 0 109 0 110 -457
3 c-443 3 -460 4 -511 25 -100 41 -166 110 -200 207 -16 48 -17 203 -22 2411
l-6 2360 -22 95 c-26 114 -61 219 -104 312 -31 68 -31 69 -12 87 21 20 333
219 518 330 746 451 1356 663 1906 663 264 0 463 -38 640 -124 92 -44 116 -62
196 -142 131 -132 195 -259 246 -488 l23 -103 0 -2675 c0 -2576 -1 -2677 -19
-2730 -33 -100 -92 -161 -195 -202 -55 -22 -68 -23 -493 -26 l-438 -3 0 -110
0 -109 1773 0 1773 0 66 148 c288 640 359 802 458 1048 62 153 121 296 132
317 11 22 18 41 16 43 -2 2 -38 19 -79 38 l-74 35 -12 -22 c-6 -12 -39 -90
-73 -172 -169 -409 -324 -641 -478 -717 -62 -31 -74 -33 -167 -33 -89 0 -107
3 -160 28 -100 47 -168 126 -205 240 -45 140 -43 67 -50 2242 -6 2046 -6 2050
-27 2135 -50 200 -139 397 -250 553 -71 99 -241 277 -343 360 -265 214 -650
405 -1048 521 -502 146 -1170 202 -1621 136 -575 -84 -1088 -313 -1951 -869
l-205 -132 -45 53 c-85 102 -256 264 -357 340 -467 351 -1135 572 -1898 628
-178 13 -206 11 -125 -7z"/>
<path d="M18680 12165 l0 -115 224 0 c196 0 232 -2 289 -20 119 -37 210 -124
343 -325 64 -97 527 -953 2131 -3940 240 -445 535 -994 656 -1220 242 -450
286 -545 328 -711 38 -151 45 -256 25 -368 -9 -49 -14 -92 -11 -94 6 -6 34 39
542 878 860 1421 1174 1942 1171 1945 -2 2 -30 -19 -63 -46 -86 -70 -148 -93
-260 -92 -149 0 -284 62 -410 188 -83 84 -70 61 -503 850 -187 341 -521 949
-742 1350 -221 402 -456 828 -522 948 -148 268 -162 305 -162 419 -1 80 1 89
29 129 21 29 50 54 90 74 l59 30 448 3 448 3 0 114 0 115 -2055 0 -2055 0 0
-115z"/>
<path d="M24660 12165 l0 -114 668 -3 c647 -4 669 -4 743 -25 214 -60 339
-180 339 -323 0 -31 -8 -86 -19 -122 -10 -37 -14 -65 -10 -62 5 3 40 51 78
108 142 208 256 320 391 385 l75 36 163 3 162 4 0 114 0 114 -1295 0 -1295 0
0 -115z"/>
<path d="M23302 2695 c-177 -39 -351 -172 -436 -335 -122 -231 -95 -526 62
-701 60 -67 139 -117 340 -215 237 -116 302 -179 302 -293 0 -176 -218 -485
-485 -685 -383 -288 -861 -350 -1284 -168 -467 202 -794 704 -871 1342 -15
125 -12 377 6 499 8 58 29 159 46 224 16 65 28 121 25 123 -7 7 -73 -156 -122
-302 -87 -259 -127 -551 -106 -770 34 -347 152 -626 376 -886 207 -241 523
-424 855 -495 67 -14 130 -18 295 -18 193 0 219 3 322 27 191 45 342 113 514
230 247 167 421 370 634 737 164 282 259 511 306 731 29 135 32 370 6 470 -92
353 -430 562 -785 485z"/>
</g>
</svg>
